{
  "source": "C:\\Users\\Peter\\Desktop\\stuff\\MIUN\\quantitative_research\\video_compression\\videos\\UVG\\ShakeNDry_1920x1080_120fps_420_8bit_YUV.y4m",
  "output": "C:\\Users\\Peter\\Desktop\\stuff\\MIUN\\quantitative_research\\video_compression\\compressed_videos\\UVG\\av1\\3\\ShakeNDry_1920x1080_120fps_420_8bit_YUV_av1.mkv",
  "codec": "av1",
  "ok": "[yuv4mpegpipe @ 0000023272d05380] Stream #0: not enough frames to estimate rate; consider increasing probesize\nInput #0, yuv4mpegpipe, from 'C:\\Users\\Peter\\Desktop\\stuff\\MIUN\\quantitative_research\\video_compression\\videos\\UVG\\ShakeNDry_1920x1080_120fps_420_8bit_YUV.y4m':\n  Duration: 00:00:02.50, start: 0.000000, bitrate: 2985989 kb/s\n  Stream #0:0: Video: rawvideo (I420 / 0x30323449), yuv420p(progressive), 1920x1080, 120 fps, 120 tbr, 120 tbn\n[out#0/matroska @ 0000023272d090c0] Codec AVOption b:a (set bitrate (in bits/s)) has not been used for any stream. The most likely reason is either wrong type (e.g. a video option with no video streams) or that it is a private option of some decoder which was not actually used for any stream.\nStream mapping:\n  Stream #0:0 -> #0:0 (rawvideo (native) -> av1 (libsvtav1))\nPress [q] to stop, [?] for help\nSvt[info]: -------------------------------------------\nSvt[info]: SVT [version]:\tSVT-AV1 Encoder Lib v3.1.0-19-g6ecfe8ec\nSvt[info]: SVT [build]  :\tGCC 15.2.0\t 64 bit\nSvt[info]: LIB Build date: Aug 17 2025 11:37:13\nSvt[info]: -------------------------------------------\n[libsvtav1 @ 0000023272d0c1c0] Specified chroma sample location center is unsupported on the AV1 bit stream level. Usage of a container that allows passing this information - such as Matroska - is recommended.\nSvt[info]: Level of Parallelism: 5\nSvt[info]: Number of PPCS 93\nSvt[info]: [asm level on system : up to avx2]\nSvt[info]: [asm level selected : up to avx2]\nSvt[info]: -------------------------------------------\nSvt[info]: SVT [config]: main profile\ttier (auto)\tlevel (auto)\nSvt[info]: SVT [config]: width / height / fps numerator / fps denominator \t\t: 1920 / 1080 / 120 / 1\nSvt[info]: SVT [config]: bit-depth / color format \t\t\t\t\t: 8 / YUV420\nSvt[info]: SVT [config]: preset / tune / pred struct \t\t\t\t\t: 4 / PSNR / random access\nSvt[info]: SVT [config]: gop size / mini-gop size / key-frame type \t\t\t: 641 / 16 / key frame\nSvt[info]: SVT [config]: BRC mode / target bitrate (kbps)\t\t\t\t: VBR / 3000 \nSvt[info]: SVT [config]: AQ mode / Variance Boost \t\t\t\t\t: 2 / 0\nSvt[info]: SVT [config]: sharpness / luminance-based QP bias \t\t\t\t: 0 / 0\nSvt[info]: SVT [config]: QP scale compress strength \t\t\t\t\t: 0\nSvt[info]: -------------------------------------------\nOutput #0, matroska, to 'C:\\Users\\Peter\\Desktop\\stuff\\MIUN\\quantitative_research\\video_compression\\compressed_videos\\UVG\\av1\\3\\ShakeNDry_1920x1080_120fps_420_8bit_YUV_av1.mkv':\n  Metadata:\n    encoder         : Lavf62.3.100\n  Stream #0:0: Video: av1 (AV01 / 0x31305641), yuv420p(tv, progressive), 1920x1080, q=2-31, 3000 kb/s, 120 fps, 1k tbn\n    Metadata:\n      encoder         : Lavc62.11.100 libsvtav1\n    Side data:\n      cpb: bitrate max/min/avg: 0/0/3000000 buffer size: 3000000 vbv_delay: N/A\nframe=    0 fps=0.0 q=0.0 size=       0KiB time=N/A bitrate=N/A speed=N/A elapsed=0:00:02.90    \nframe=    0 fps=0.0 q=0.0 size=       0KiB time=N/A bitrate=N/A speed=N/A elapsed=0:00:03.41    \nframe=    0 fps=0.0 q=0.0 size=       0KiB time=N/A bitrate=N/A speed=N/A elapsed=0:00:03.93    \nframe=    0 fps=0.0 q=0.0 size=       0KiB time=N/A bitrate=N/A speed=N/A elapsed=0:00:04.45    \nframe=    0 fps=0.0 q=0.0 size=       0KiB time=N/A bitrate=N/A speed=N/A elapsed=0:00:04.96    \nframe=    0 fps=0.0 q=0.0 size=       0KiB time=N/A bitrate=N/A speed=N/A elapsed=0:00:05.47    \nframe=    0 fps=0.0 q=0.0 size=       0KiB time=N/A bitrate=N/A speed=N/A elapsed=0:00:05.98    \nframe=    0 fps=0.0 q=0.0 size=       0KiB time=N/A bitrate=N/A speed=N/A elapsed=0:00:06.51    \nframe=    0 fps=0.0 q=0.0 size=       0KiB time=N/A bitrate=N/A speed=N/A elapsed=0:00:07.02    \nframe=    0 fps=0.0 q=0.0 size=       0KiB time=N/A bitrate=N/A speed=N/A elapsed=0:00:07.54    \nframe=    0 fps=0.0 q=0.0 size=       0KiB time=N/A bitrate=N/A speed=N/A elapsed=0:00:08.06    \nframe=    0 fps=0.0 q=0.0 size=       0KiB time=N/A bitrate=N/A speed=N/A elapsed=0:00:08.57    \nframe=    0 fps=0.0 q=0.0 size=       0KiB time=N/A bitrate=N/A speed=N/A elapsed=0:00:09.09    \nframe=    0 fps=0.0 q=0.0 size=       0KiB time=N/A bitrate=N/A speed=N/A elapsed=0:00:09.60    \nframe=    0 fps=0.0 q=0.0 size=       0KiB time=N/A bitrate=N/A speed=N/A elapsed=0:00:10.11    \nframe=    0 fps=0.0 q=0.0 size=       0KiB time=N/A bitrate=N/A speed=N/A elapsed=0:00:10.65    \nframe=    0 fps=0.0 q=0.0 size=       0KiB time=N/A bitrate=N/A speed=N/A elapsed=0:00:11.16    \nframe=    0 fps=0.0 q=0.0 size=       0KiB time=N/A bitrate=N/A speed=N/A elapsed=0:00:11.67    \nframe=    1 fps=0.1 q=24.0 size=       1KiB time=00:00:00.00 bitrate=N/A speed=   0x elapsed=0:00:12.19    \nframe=    1 fps=0.1 q=24.0 size=       1KiB time=00:00:00.00 bitrate=N/A speed=   0x elapsed=0:00:12.72    \nframe=    1 fps=0.1 q=24.0 size=       1KiB time=00:00:00.00 bitrate=N/A speed=   0x elapsed=0:00:13.25    \nframe=    1 fps=0.1 q=24.0 size=       1KiB time=00:00:00.00 bitrate=N/A speed=   0x elapsed=0:00:13.91    \nframe=    1 fps=0.1 q=24.0 size=       1KiB time=00:00:00.00 bitrate=N/A speed=   0x elapsed=0:00:14.47    \nframe=    2 fps=0.1 q=57.0 size=       1KiB time=00:00:00.00 bitrate= 537.6kbits/s speed=0.000555x elapsed=0:00:15.01    \nframe=    4 fps=0.3 q=57.0 size=       1KiB time=00:00:00.02 bitrate= 179.2kbits/s speed=0.0016x elapsed=0:00:15.59    \nframe=    7 fps=0.4 q=53.0 size=       1KiB time=00:00:00.05 bitrate=  89.6kbits/s speed=0.00309x elapsed=0:00:16.17    \nframe=    8 fps=0.5 q=55.0 size=       1KiB time=00:00:00.05 bitrate=  76.8kbits/s speed=0.0035x elapsed=0:00:16.67    \nframe=   11 fps=0.6 q=53.0 size=       1KiB time=00:00:00.08 bitrate=  53.8kbits/s speed=0.00485x elapsed=0:00:17.19    \nframe=   11 fps=0.6 q=53.0 size=       1KiB time=00:00:00.08 bitrate=  53.8kbits/s speed=0.0047x elapsed=0:00:17.72    \nframe=   13 fps=0.7 q=50.0 size=       1KiB time=00:00:00.10 bitrate=  44.8kbits/s speed=0.00548x elapsed=0:00:18.26    \nframe=   15 fps=0.8 q=52.0 size=       1KiB time=00:00:00.11 bitrate=  38.4kbits/s speed=0.00621x elapsed=0:00:18.78    \nframe=   16 fps=0.8 q=55.0 size=       1KiB time=00:00:00.12 bitrate=  35.8kbits/s speed=0.00648x elapsed=0:00:19.30    \nframe=   18 fps=0.9 q=50.0 size=       1KiB time=00:00:00.14 bitrate=  31.6kbits/s speed=0.00712x elapsed=0:00:19.89    \nframe=   19 fps=0.9 q=53.0 size=       1KiB time=00:00:00.15 bitrate=  29.9kbits/s speed=0.00732x elapsed=0:00:20.49    \nframe=   21 fps=1.0 q=51.0 size=       1KiB time=00:00:00.16 bitrate=  26.9kbits/s speed=0.00792x elapsed=0:00:21.03    \nframe=   22 fps=1.0 q=50.0 size=       1KiB time=00:00:00.17 bitrate=  25.6kbits/s speed=0.00812x elapsed=0:00:21.55    \nframe=   23 fps=1.0 q=51.0 size=       1KiB time=00:00:00.18 bitrate=  24.4kbits/s speed=0.0083x elapsed=0:00:22.08    \nframe=   24 fps=1.1 q=51.0 size=       1KiB time=00:00:00.19 bitrate=  23.4kbits/s speed=0.00848x elapsed=0:00:22.60    \nframe=   26 fps=1.1 q=50.0 size=       1KiB time=00:00:00.20 bitrate=  21.5kbits/s speed=0.00901x elapsed=0:00:23.11    \nframe=   27 fps=1.1 q=52.0 size=       1KiB time=00:00:00.21 bitrate=  20.7kbits/s speed=0.00917x elapsed=0:00:23.63    \nframe=   28 fps=1.2 q=51.0 size=       1KiB time=00:00:00.22 bitrate=  19.9kbits/s speed=0.0093x elapsed=0:00:24.18    \nframe=   31 fps=1.3 q=51.0 size=       1KiB time=00:00:00.25 bitrate=  17.9kbits/s speed=0.0101x elapsed=0:00:24.71    \nframe=   34 fps=1.3 q=50.0 size=       1KiB time=00:00:00.27 bitrate=  16.3kbits/s speed=0.0109x elapsed=0:00:25.24    \nframe=   35 fps=1.4 q=52.0 size=       1KiB time=00:00:00.28 bitrate=  15.8kbits/s speed=0.011x elapsed=0:00:25.82    \nframe=   35 fps=1.3 q=52.0 size=       1KiB time=00:00:00.28 bitrate=  15.8kbits/s speed=0.0107x elapsed=0:00:26.36    \nframe=   36 fps=1.3 q=50.0 size=       1KiB time=00:00:00.29 bitrate=  15.4kbits/s speed=0.0108x elapsed=0:00:26.88    \nframe=   37 fps=1.3 q=50.0 size=       1KiB time=00:00:00.30 bitrate=  14.9kbits/s speed=0.0109x elapsed=0:00:27.51    \nframe=   38 fps=1.4 q=51.0 size=       1KiB time=00:00:00.30 bitrate=  14.5kbits/s speed=0.011x elapsed=0:00:28.06    \nframe=   40 fps=1.4 q=50.0 size=       1KiB time=00:00:00.32 bitrate=  13.8kbits/s speed=0.0114x elapsed=0:00:28.57    \nframe=   42 fps=1.4 q=50.0 size=       1KiB time=00:00:00.34 bitrate=  13.1kbits/s speed=0.0117x elapsed=0:00:29.11    \nframe=   43 fps=1.5 q=52.0 size=       1KiB time=00:00:00.35 bitrate=  12.8kbits/s speed=0.0118x elapsed=0:00:29.62    \nframe=   46 fps=1.5 q=51.0 size=       1KiB time=00:00:00.37 bitrate=  11.9kbits/s speed=0.0124x elapsed=0:00:30.15    \nframe=   47 fps=1.5 q=51.0 size=       1KiB time=00:00:00.38 bitrate=  11.7kbits/s speed=0.0125x elapsed=0:00:30.67    \nframe=   50 fps=1.6 q=51.0 size=       1KiB time=00:00:00.40 bitrate=  11.0kbits/s speed=0.0131x elapsed=0:00:31.19    \nframe=   51 fps=1.6 q=52.0 size=       1KiB time=00:00:00.41 bitrate=  10.8kbits/s speed=0.0131x elapsed=0:00:31.70    \nframe=   51 fps=1.6 q=52.0 size=       1KiB time=00:00:00.41 bitrate=  10.8kbits/s speed=0.0129x elapsed=0:00:32.22    \nframe=   53 fps=1.6 q=50.0 size=       1KiB time=00:00:00.43 bitrate=  10.3kbits/s speed=0.0132x elapsed=0:00:32.80    \nframe=   54 fps=1.6 q=51.0 size=       1KiB time=00:00:00.44 bitrate=  10.1kbits/s speed=0.0132x elapsed=0:00:33.37    \nframe=   55 fps=1.6 q=48.0 size=       1KiB time=00:00:00.45 bitrate=  10.0kbits/s speed=0.0133x elapsed=0:00:33.88    \nframe=   56 fps=1.6 q=51.0 size=       1KiB time=00:00:00.45 bitrate=  10.0kbits/s speed=0.0131x elapsed=0:00:34.43    \nframe=   58 fps=1.7 q=51.0 size=       1KiB time=00:00:00.47 bitrate=   9.4kbits/s speed=0.0136x elapsed=0:00:34.97    \nframe=   60 fps=1.7 q=50.0 size=       1KiB time=00:00:00.49 bitrate=   9.1kbits/s speed=0.0138x elapsed=0:00:35.54    \nframe=   62 fps=1.7 q=50.0 size=       1KiB time=00:00:00.50 bitrate=   8.8kbits/s speed=0.0141x elapsed=0:00:36.06    \nframe=   65 fps=1.8 q=30.0 size=       1KiB time=00:00:00.53 bitrate=   8.4kbits/s speed=0.0146x elapsed=0:00:36.56    \nframe=   66 fps=1.8 q=52.0 size=       1KiB time=00:00:00.54 bitrate=   8.3kbits/s speed=0.0146x elapsed=0:00:37.10    \nframe=   69 fps=1.8 q=49.0 size=       1KiB time=00:00:00.56 bitrate=   7.9kbits/s speed=0.0151x elapsed=0:00:37.65    \nframe=   70 fps=1.8 q=51.0 size=       1KiB time=00:00:00.57 bitrate=   7.8kbits/s speed=0.0151x elapsed=0:00:38.19    \nframe=   71 fps=1.8 q=51.0 size=       1KiB time=00:00:00.58 bitrate=   7.7kbits/s speed=0.0151x elapsed=0:00:38.73    \nframe=   73 fps=1.9 q=39.0 size=       1KiB time=00:00:00.60 bitrate=   7.5kbits/s speed=0.0153x elapsed=0:00:39.24    \nframe=   75 fps=1.9 q=51.0 size=       1KiB time=00:00:00.61 bitrate=   7.3kbits/s speed=0.0155x elapsed=0:00:39.75    \nframe=   75 fps=1.9 q=51.0 size=       1KiB time=00:00:00.61 bitrate=   7.3kbits/s speed=0.0153x elapsed=0:00:40.28    \nframe=   77 fps=1.9 q=47.0 size=       1KiB time=00:00:00.63 bitrate=   7.1kbits/s speed=0.0155x elapsed=0:00:40.78    \nframe=   79 fps=1.9 q=49.0 size=       1KiB time=00:00:00.65 bitrate=   6.9kbits/s speed=0.0157x elapsed=0:00:41.30    \nframe=   82 fps=2.0 q=50.0 size=       1KiB time=00:00:00.67 bitrate=   6.6kbits/s speed=0.0161x elapsed=0:00:41.82    \nframe=   83 fps=2.0 q=50.0 size=       1KiB time=00:00:00.68 bitrate=   6.6kbits/s speed=0.0161x elapsed=0:00:42.34    \nframe=   86 fps=2.0 q=50.0 size=       1KiB time=00:00:00.70 bitrate=   6.3kbits/s speed=0.0165x elapsed=0:00:42.85    \nframe=   88 fps=2.0 q=50.0 size=       1KiB time=00:00:00.72 bitrate=   6.2kbits/s speed=0.0167x elapsed=0:00:43.37    \nframe=   89 fps=2.0 q=39.0 size=       1KiB time=00:00:00.73 bitrate=   6.1kbits/s speed=0.0167x elapsed=0:00:43.89    \nframe=   91 fps=2.0 q=50.0 size=       1KiB time=00:00:00.75 bitrate=   6.0kbits/s speed=0.0169x elapsed=0:00:44.39    \nframe=   92 fps=2.0 q=49.0 size=       1KiB time=00:00:00.75 bitrate=   5.9kbits/s speed=0.0169x elapsed=0:00:44.91    \nframe=   96 fps=2.1 q=49.0 size=       1KiB time=00:00:00.79 bitrate=   5.7kbits/s speed=0.0174x elapsed=0:00:45.42    \nframe=   99 fps=2.2 q=49.0 size=       1KiB time=00:00:00.81 bitrate=   5.5kbits/s speed=0.0178x elapsed=0:00:45.94    \nframe=  100 fps=2.2 q=48.0 size=       1KiB time=00:00:00.82 bitrate=   5.4kbits/s speed=0.0178x elapsed=0:00:46.46    \nframe=  101 fps=2.1 q=46.0 size=       1KiB time=00:00:00.83 bitrate=   5.4kbits/s speed=0.0177x elapsed=0:00:46.98    \nframe=  103 fps=2.2 q=49.0 size=       1KiB time=00:00:00.85 bitrate=   5.3kbits/s speed=0.0179x elapsed=0:00:47.49    \nframe=  104 fps=2.2 q=48.0 size=       1KiB time=00:00:00.85 bitrate=   5.2kbits/s speed=0.0179x elapsed=0:00:48.00    \nframe=  106 fps=2.2 q=47.0 size=       1KiB time=00:00:00.87 bitrate=   5.1kbits/s speed=0.018x elapsed=0:00:48.52    \nframe=  108 fps=2.2 q=47.0 size=       1KiB time=00:00:00.89 bitrate=   5.0kbits/s speed=0.0182x elapsed=0:00:49.04    \nframe=  110 fps=2.2 q=47.0 size=       1KiB time=00:00:00.90 bitrate=   4.9kbits/s speed=0.0183x elapsed=0:00:49.55    \nframe=  112 fps=2.2 q=48.0 size=       1KiB time=00:00:00.92 bitrate=   4.8kbits/s speed=0.0185x elapsed=0:00:50.06    \nframe=  114 fps=2.3 q=47.0 size=       1KiB time=00:00:00.94 bitrate=   4.8kbits/s speed=0.0186x elapsed=0:00:50.58    \nframe=  116 fps=2.3 q=46.0 size=       1KiB time=00:00:00.95 bitrate=   4.7kbits/s speed=0.0188x elapsed=0:00:51.09    \nframe=  119 fps=2.3 q=47.0 size=       1KiB time=00:00:00.98 bitrate=   4.6kbits/s speed=0.019x elapsed=0:00:51.62    \nframe=  121 fps=2.3 q=35.0 size=       1KiB time=00:00:01.00 bitrate=   4.5kbits/s speed=0.0192x elapsed=0:00:52.13    \nframe=  123 fps=2.3 q=47.0 size=       1KiB time=00:00:01.01 bitrate=   4.4kbits/s speed=0.0193x elapsed=0:00:52.64    \nframe=  127 fps=2.4 q=45.0 size=       1KiB time=00:00:01.05 bitrate=   4.3kbits/s speed=0.0198x elapsed=0:00:53.16    \nframe=  129 fps=2.4 q=21.0 size=       1KiB time=00:00:01.06 bitrate=   4.2kbits/s speed=0.0199x elapsed=0:00:53.68    \nframe=  130 fps=2.4 q=46.0 size=       1KiB time=00:00:01.07 bitrate=   4.2kbits/s speed=0.0198x elapsed=0:00:54.19    \nframe=  131 fps=2.4 q=46.0 size=       1KiB time=00:00:01.08 bitrate=   4.1kbits/s speed=0.0198x elapsed=0:00:54.70    \nframe=  133 fps=2.4 q=44.0 size=       1KiB time=00:00:01.10 bitrate=   4.1kbits/s speed=0.0199x elapsed=0:00:55.23    \nframe=  134 fps=2.4 q=46.0 size=       1KiB time=00:00:01.10 bitrate=   4.0kbits/s speed=0.0199x elapsed=0:00:55.74    \nframe=  135 fps=2.4 q=46.0 size=       1KiB time=00:00:01.11 bitrate=   4.0kbits/s speed=0.0198x elapsed=0:00:56.26    \nframe=  137 fps=2.4 q=35.0 size=       1KiB time=00:00:01.13 bitrate=   4.0kbits/s speed=0.02x elapsed=0:00:56.78    \nframe=  139 fps=2.4 q=46.0 size=       1KiB time=00:00:01.15 bitrate=   3.9kbits/s speed=0.0201x elapsed=0:00:57.28    \nframe=  142 fps=2.5 q=43.0 size=       1KiB time=00:00:01.17 bitrate=   3.8kbits/s speed=0.0203x elapsed=0:00:57.80    \nframe=  146 fps=2.5 q=44.0 size=       1KiB time=00:00:01.20 bitrate=   3.7kbits/s speed=0.0207x elapsed=0:00:58.31    \nframe=  149 fps=2.5 q=44.0 size=       1KiB time=00:00:01.23 bitrate=   3.6kbits/s speed=0.021x elapsed=0:00:58.83    \nframe=  150 fps=2.5 q=43.0 size=       1KiB time=00:00:01.24 bitrate=   3.6kbits/s speed=0.0209x elapsed=0:00:59.34    \nframe=  151 fps=2.5 q=46.0 size=       1KiB time=00:00:01.25 bitrate=   3.6kbits/s speed=0.0209x elapsed=0:00:59.86    \nframe=  154 fps=2.6 q=42.0 size=       1KiB time=00:00:01.27 bitrate=   3.5kbits/s speed=0.0211x elapsed=0:01:00.38    \nframe=  156 fps=2.6 q=42.0 size=       1KiB time=00:00:01.29 bitrate=   3.5kbits/s speed=0.0212x elapsed=0:01:00.89    \nframe=  157 fps=2.6 q=44.0 size=       1KiB time=00:00:01.30 bitrate=   3.4kbits/s speed=0.0212x elapsed=0:01:01.41    \nframe=  159 fps=2.6 q=43.0 size=       1KiB time=00:00:01.31 bitrate=   3.4kbits/s speed=0.0213x elapsed=0:01:01.93    \nframe=  161 fps=2.6 q=20.0 size=       1KiB time=00:00:01.33 bitrate=   3.4kbits/s speed=0.0213x elapsed=0:01:02.45    \nframe=  162 fps=2.6 q=41.0 size=       1KiB time=00:00:01.34 bitrate=   3.3kbits/s speed=0.0213x elapsed=0:01:02.95    \nframe=  163 fps=2.6 q=42.0 size=       1KiB time=00:00:01.35 bitrate=   3.3kbits/s speed=0.0213x elapsed=0:01:03.47    \nframe=  164 fps=2.6 q=41.0 size=       1KiB time=00:00:01.35 bitrate=   3.3kbits/s speed=0.0212x elapsed=0:01:03.99    \nframe=  165 fps=2.6 q=43.0 size=       1KiB time=00:00:01.36 bitrate=   3.3kbits/s speed=0.0212x elapsed=0:01:04.51    \nframe=  167 fps=2.6 q=42.0 size=       1KiB time=00:00:01.38 bitrate=   3.2kbits/s speed=0.0213x elapsed=0:01:05.02    \nframe=  170 fps=2.6 q=41.0 size=       1KiB time=00:00:01.40 bitrate=   3.2kbits/s speed=0.0215x elapsed=0:01:05.53    \nframe=  170 fps=2.6 q=41.0 size=       1KiB time=00:00:01.40 bitrate=   3.2kbits/s speed=0.0213x elapsed=0:01:06.05    \nframe=  175 fps=2.6 q=42.0 size=       1KiB time=00:00:01.45 bitrate=   3.1kbits/s speed=0.0218x elapsed=0:01:06.57    \nframe=  177 fps=2.6 q=21.0 size=       1KiB time=00:00:01.46 bitrate=   3.1kbits/s speed=0.0219x elapsed=0:01:07.08    \nframe=  179 fps=2.6 q=43.0 size=       1KiB time=00:00:01.48 bitrate=   3.0kbits/s speed=0.0219x elapsed=0:01:07.60    \nframe=  180 fps=2.6 q=41.0 size=       1KiB time=00:00:01.49 bitrate=   3.0kbits/s speed=0.0219x elapsed=0:01:08.12    \nframe=  181 fps=2.6 q=43.0 size=       1KiB time=00:00:01.50 bitrate=   3.0kbits/s speed=0.0219x elapsed=0:01:08.63    \nframe=  183 fps=2.6 q=43.0 size=       1KiB time=00:00:01.51 bitrate=   3.0kbits/s speed=0.0219x elapsed=0:01:09.14    \nframe=  184 fps=2.6 q=42.0 size=       1KiB time=00:00:01.52 bitrate=   2.9kbits/s speed=0.0219x elapsed=0:01:09.65    \nframe=  187 fps=2.7 q=44.0 size=       1KiB time=00:00:01.55 bitrate=   2.9kbits/s speed=0.0221x elapsed=0:01:10.17    \nframe=  189 fps=2.7 q=43.0 size=       1KiB time=00:00:01.56 bitrate=   2.9kbits/s speed=0.0222x elapsed=0:01:10.69    \nframe=  191 fps=2.7 q=44.0 size=       1KiB time=00:00:01.58 bitrate=   2.8kbits/s speed=0.0222x elapsed=0:01:11.24    \nframe=  193 fps=2.7 q=22.0 size=       1KiB time=00:00:01.60 bitrate=   2.8kbits/s speed=0.0223x elapsed=0:01:11.75    \nframe=  194 fps=2.7 q=42.0 size=       1KiB time=00:00:01.60 bitrate=   2.8kbits/s speed=0.0223x elapsed=0:01:12.27    \nframe=  196 fps=2.7 q=42.0 size=       1KiB time=00:00:01.62 bitrate=   2.8kbits/s speed=0.0223x elapsed=0:01:12.79    \nframe=  199 fps=2.7 q=44.0 size=       1KiB time=00:00:01.65 bitrate=   2.7kbits/s speed=0.0225x elapsed=0:01:13.30    \nframe=  200 fps=2.7 q=43.0 size=       1KiB time=00:00:01.65 bitrate=   2.7kbits/s speed=0.0225x elapsed=0:01:13.82    \nframe=  205 fps=2.8 q=43.0 size=       1KiB time=00:00:01.70 bitrate=   2.6kbits/s speed=0.0229x elapsed=0:01:14.34    \nframe=  207 fps=2.8 q=44.0 size=       1KiB time=00:00:01.71 bitrate=   2.6kbits/s speed=0.0229x elapsed=0:01:14.85    \nframe=  209 fps=2.8 q=21.0 size=       1KiB time=00:00:01.73 bitrate=   2.6kbits/s speed=0.023x elapsed=0:01:15.40    \nframe=  209 fps=2.7 q=21.0 size=       1KiB time=00:00:01.73 bitrate=   2.6kbits/s speed=0.0228x elapsed=0:01:16.02    \nframe=  213 fps=2.8 q=43.0 size=       1KiB time=00:00:01.76 bitrate=   2.5kbits/s speed=0.0231x elapsed=0:01:16.54    \nframe=  213 fps=2.8 q=43.0 size=       1KiB time=00:00:01.76 bitrate=   2.5kbits/s speed=0.0229x elapsed=0:01:17.05    \nframe=  217 fps=2.8 q=32.0 size=       1KiB time=00:00:01.80 bitrate=   2.5kbits/s speed=0.0232x elapsed=0:01:17.56    \nframe=  217 fps=2.8 q=32.0 size=       1KiB time=00:00:01.80 bitrate=   2.5kbits/s speed=0.023x elapsed=0:01:18.09    \nframe=  221 fps=2.8 q=42.0 size=       1KiB time=00:00:01.83 bitrate=   2.4kbits/s speed=0.0233x elapsed=0:01:18.60    \nframe=  221 fps=2.8 q=42.0 size=       1KiB time=00:00:01.83 bitrate=   2.4kbits/s speed=0.0232x elapsed=0:01:19.12    \nframe=  223 fps=2.8 q=44.0 size=       1KiB time=00:00:01.85 bitrate=   2.4kbits/s speed=0.0232x elapsed=0:01:19.63    \nframe=  227 fps=2.8 q=44.0 size=       1KiB time=00:00:01.88 bitrate=   2.4kbits/s speed=0.0235x elapsed=0:01:20.14    \nframe=  227 fps=2.8 q=44.0 size=       1KiB time=00:00:01.88 bitrate=   2.4kbits/s speed=0.0233x elapsed=0:01:20.65    \nframe=  229 fps=2.8 q=43.0 size=       1KiB time=00:00:01.90 bitrate=   2.4kbits/s speed=0.0234x elapsed=0:01:21.18    \nframe=  229 fps=2.8 q=43.0 size=       1KiB time=00:00:01.90 bitrate=   2.4kbits/s speed=0.0233x elapsed=0:01:21.69    \nframe=  233 fps=2.8 q=32.0 size=       1KiB time=00:00:01.93 bitrate=   2.3kbits/s speed=0.0235x elapsed=0:01:22.20    \nframe=  233 fps=2.8 q=32.0 size=       1KiB time=00:00:01.93 bitrate=   2.3kbits/s speed=0.0234x elapsed=0:01:22.73    \nframe=  233 fps=2.8 q=32.0 size=       1KiB time=00:00:01.93 bitrate=   2.3kbits/s speed=0.0232x elapsed=0:01:23.24    \nframe=  235 fps=2.8 q=44.0 size=       1KiB time=00:00:01.95 bitrate=   2.3kbits/s speed=0.0233x elapsed=0:01:23.76    \nframe=  237 fps=2.8 q=41.0 size=       1KiB time=00:00:01.96 bitrate=   2.3kbits/s speed=0.0233x elapsed=0:01:24.28    \nframe=  239 fps=2.8 q=44.0 size=       1KiB time=00:00:01.98 bitrate=   2.3kbits/s speed=0.0234x elapsed=0:01:24.79    \nframe=  241 fps=2.8 q=22.0 size=       1KiB time=00:00:02.00 bitrate=   2.2kbits/s speed=0.0234x elapsed=0:01:25.30    \nframe=  243 fps=2.8 q=43.0 size=       1KiB time=00:00:02.01 bitrate=   2.2kbits/s speed=0.0235x elapsed=0:01:25.81    \nframe=  245 fps=2.8 q=42.0 size=       1KiB time=00:00:02.03 bitrate=   2.2kbits/s speed=0.0235x elapsed=0:01:26.34    \nframe=  245 fps=2.8 q=42.0 size=       1KiB time=00:00:02.03 bitrate=   2.2kbits/s speed=0.0234x elapsed=0:01:26.85    \nframe=  249 fps=2.9 q=31.0 size=       1KiB time=00:00:02.06 bitrate=   2.2kbits/s speed=0.0237x elapsed=0:01:27.36    \nframe=  249 fps=2.8 q=31.0 size=       1KiB time=00:00:02.06 bitrate=   2.2kbits/s speed=0.0235x elapsed=0:01:27.88    \nframe=  249 fps=2.8 q=31.0 size=       1KiB time=00:00:02.06 bitrate=   2.2kbits/s speed=0.0234x elapsed=0:01:28.40    \nframe=  251 fps=2.8 q=42.0 size=       1KiB time=00:00:02.08 bitrate=   2.2kbits/s speed=0.0234x elapsed=0:01:28.92    \nframe=  253 fps=2.8 q=42.0 size=       1KiB time=00:00:02.10 bitrate=   2.1kbits/s speed=0.0235x elapsed=0:01:29.43    \nframe=  255 fps=2.8 q=41.0 size=       1KiB time=00:00:02.11 bitrate=   2.1kbits/s speed=0.0235x elapsed=0:01:29.95    \nframe=  257 fps=2.8 q=21.0 size=       1KiB time=00:00:02.13 bitrate=   2.1kbits/s speed=0.0236x elapsed=0:01:30.48    \nframe=  259 fps=2.8 q=43.0 size=       1KiB time=00:00:02.15 bitrate=   2.1kbits/s speed=0.0236x elapsed=0:01:30.99    \nframe=  261 fps=2.9 q=40.0 size=       1KiB time=00:00:02.16 bitrate=   2.1kbits/s speed=0.0237x elapsed=0:01:31.51    \nframe=  263 fps=2.9 q=43.0 size=       1KiB time=00:00:02.18 bitrate=   2.1kbits/s speed=0.0237x elapsed=0:01:32.02    \nframe=  265 fps=2.9 q=29.0 size=       1KiB time=00:00:02.20 bitrate=   2.0kbits/s speed=0.0238x elapsed=0:01:32.53    \nframe=  265 fps=2.8 q=29.0 size=       1KiB time=00:00:02.20 bitrate=   2.0kbits/s speed=0.0236x elapsed=0:01:33.05    \nframe=  265 fps=2.8 q=29.0 size=       1KiB time=00:00:02.20 bitrate=   2.0kbits/s speed=0.0235x elapsed=0:01:33.56    \nframe=  269 fps=2.9 q=37.0 size=       1KiB time=00:00:02.23 bitrate=   2.0kbits/s speed=0.0237x elapsed=0:01:34.09    \nframe=  269 fps=2.8 q=37.0 size=       1KiB time=00:00:02.23 bitrate=   2.0kbits/s speed=0.0236x elapsed=0:01:34.60    \nframe=  271 fps=2.8 q=39.0 size=       1KiB time=00:00:02.25 bitrate=   2.0kbits/s speed=0.0237x elapsed=0:01:35.12    \nframe=  273 fps=2.9 q=19.0 size=       1KiB time=00:00:02.26 bitrate=   2.0kbits/s speed=0.0237x elapsed=0:01:35.63    \nframe=  277 fps=2.9 q=39.0 size=       1KiB time=00:00:02.30 bitrate=   1.9kbits/s speed=0.0239x elapsed=0:01:36.15    \nframe=  279 fps=2.9 q=40.0 size=       1KiB time=00:00:02.31 bitrate=   1.9kbits/s speed=0.024x elapsed=0:01:36.66    \nframe=  279 fps=2.9 q=40.0 size=       1KiB time=00:00:02.31 bitrate=   1.9kbits/s speed=0.0238x elapsed=0:01:37.18    \nframe=  281 fps=2.9 q=27.0 size=       1KiB time=00:00:02.33 bitrate=   1.9kbits/s speed=0.0239x elapsed=0:01:37.69    \nframe=  285 fps=2.9 q=39.0 size=       1KiB time=00:00:02.36 bitrate=   1.9kbits/s speed=0.0241x elapsed=0:01:38.21    \nframe=  287 fps=2.9 q=37.0 size=       1KiB time=00:00:02.38 bitrate=   1.9kbits/s speed=0.0241x elapsed=0:01:38.72    \n[out#0/matroska @ 0000023272d090c0] video:949KiB audio:0KiB subtitle:0KiB other streams:0KiB global headers:0KiB muxing overhead: 0.202884%\nframe=  300 fps=3.0 q=34.0 Lsize=     951KiB time=00:00:02.49 bitrate=3125.5kbits/s speed=0.0252x elapsed=0:01:39.04    \n",
  "seconds": 101.36345362663269,
  "probe_out": {}
}